HIERARCHY
ROOT root
{
	OFFSET	0	13.1	24.9
	CHANNELS 6  Xposition Yposition Zposition Xrotation Yrotation Zrotation
	JOINT spine_1
	{
		OFFSET	0	9.99999	0
		CHANNELS 3  Xrotation Yrotation Zrotation
		JOINT spine_2
		{
			OFFSET	0	112	-10
			CHANNELS 3  Xrotation Yrotation Zrotation
			JOINT spine_3
			{
				OFFSET	0	206.5	19.3
				CHANNELS 3  Xrotation Yrotation Zrotation
				JOINT spine_4
				{
					OFFSET	0	110.4	14.6
					CHANNELS 3  Xrotation Yrotation Zrotation
					JOINT neck_1
					{
						OFFSET	0	71.8	-50.3
						CHANNELS 3  Xrotation Yrotation Zrotation
						JOINT neck_2
						{
							OFFSET	0	86.2	-25.8
							CHANNELS 3  Xrotation Yrotation Zrotation
							JOINT head_ee
							{
								OFFSET	0	179.8	-8.7
								CHANNELS 3  Xrotation Yrotation Zrotation
								End Site
								{
									OFFSET	1	0	0
								}
							}
						}
					}
					JOINT left_clavicle
					{
						OFFSET	-43.2	22.4	-70.8
						CHANNELS 3  Xrotation Yrotation Zrotation
						JOINT left_shoulder
						{
							OFFSET	-93.9	-5.79999	48.7
							CHANNELS 3  Xrotation Yrotation Zrotation
							JOINT left_elbow
							{
								OFFSET	-291.4	-30.8	15.2
								CHANNELS 3  Xrotation Yrotation Zrotation
								JOINT left_lowarm_twist
								{
									OFFSET	-110.7	-3.89999	13.6
									CHANNELS 3  Xrotation Yrotation Zrotation
									JOINT left_hand
									{
										OFFSET	-110.7	-3.89999	13.6
										CHANNELS 3  Xrotation Yrotation Zrotation
										JOINT left_ee
										{
											OFFSET	-80.8	-5.10001	12.1
											CHANNELS 3  Xrotation Yrotation Zrotation
											End Site
											{
												OFFSET	1	0	0
											}
										}
									}
								}
							}
						}
					}
					JOINT right_clavicle
					{
						OFFSET	43.2	22.4	-70.8
						CHANNELS 3  Xrotation Yrotation Zrotation
						JOINT right_shoulder
						{
							OFFSET	93.9	-5.79999	48.7
							CHANNELS 3  Xrotation Yrotation Zrotation
							JOINT right_elbow
							{
								OFFSET	291.4	-30.8	15.2
								CHANNELS 3  Xrotation Yrotation Zrotation
								JOINT right_lowarm_twist
								{
									OFFSET	110.7	-3.89999	13.6
									CHANNELS 3  Xrotation Yrotation Zrotation
									JOINT right_hand
									{
										OFFSET	110.7	-3.89999	13.6
										CHANNELS 3  Xrotation Yrotation Zrotation
										JOINT right_ee
										{
											OFFSET	80.8	-5.10001	12.1
											CHANNELS 3  Xrotation Yrotation Zrotation
											End Site
											{
												OFFSET	1	0	0
											}
										}
									}
								}
							}
						}
					}
				}
			}
		}
	}
	JOINT left_hip
	{
		OFFSET	-82.8	-127.5	0.300001
		CHANNELS 3  Xrotation Yrotation Zrotation
		JOINT left_knee
		{
			OFFSET	-28.2	-396.7	2.2
			CHANNELS 3  Xrotation Yrotation Zrotation
			JOINT left_ankle
			{
				OFFSET	-11.7	-411.3	35.4
				CHANNELS 3  Xrotation Yrotation Zrotation
				JOINT left_toes
				{
					OFFSET	0	-60	-88.6
					CHANNELS 3  Xrotation Yrotation Zrotation
					JOINT left_foot_ee
					{
						OFFSET	-22.5	-16.5	-42.2
						CHANNELS 3  Xrotation Yrotation Zrotation
						End Site
						{
							OFFSET	1	0	0
						}
					}
				}
			}
		}
	}
	JOINT right_hip
	{
		OFFSET	82.8	-127.5	0.300001
		CHANNELS 3  Xrotation Yrotation Zrotation
		JOINT right_knee
		{
			OFFSET	28.2	-396.7	2.2
			CHANNELS 3  Xrotation Yrotation Zrotation
			JOINT right_ankle
			{
				OFFSET	11.7	-411.3	35.4
				CHANNELS 3  Xrotation Yrotation Zrotation
				JOINT right_toes
				{
					OFFSET	0	-60	-88.6
					CHANNELS 3  Xrotation Yrotation Zrotation
					JOINT right_foot_ee
					{
						OFFSET	22.5	-16.5	-42.2
						CHANNELS 3  Xrotation Yrotation Zrotation
						End Site
						{
							OFFSET	1	0	0
						}
					}
				}
			}
		}
	}
}
MOTION
Frames: 5
Frame Time: 0.02
3177.02 653.055 -1669.29 -16.106585873 59.3417367239 15.289471032 1.41706 0.407498 1.63968 1.4185 0.30235 1.66227 1.42757 -0.0116455 1.6895 1.42368 0.255288 1.67015 -0.391927 19.5251 -4.04429 0.942585 38.2292 -2.57289 -0.0 0.0 -0.0 -0.133527 13.3241 1.3522 -38.7255 -13.2157 67.506 1.36564 -34.0766 0.418535 -35.1181 -2.44757 3.68845 0.448751 7.33437 5.98044 -0.0 0.0 -0.0 12.404 18.2529 -24.9764 11.375 24.9054 -56.1873 2.4824 50.8739 -1.18083 20.8653 -0.257354 2.63823 2.54474 22.626 -7.10519 0.0 0.0 0.0 36.8491 -9.04723 -13.7398 -5.99319 0.199954 0.897626 -23.7873 6.49915 3.58048 7.33753 -0.0 -0.0 -0.0 0.0 -0.0 1.60746 19.3017 0.212186 -35.9497 0.229399 -5.42296 38.4796 -1.21805 4.73481 5.92559 -0.0 -0.0 0.0 0.0 0.0 
3106.4596579 652.12 -1667.26056099 -14.223071141 54.8215424491 13.4698081997 1.43321 0.565507 1.91014 1.43513 0.442838 1.94224 1.45058 0.0752719 1.99064 1.44526 0.388651 1.9538 0.00751762 19.5072 -4.07931 1.41186 38.1497 -2.75835 -0.0 0.0 -0.0 -0.290344 13.8927 1.16431 -35.9353 -14.0848 67.8459 1.34797 -33.731 0.408675 -35.9623 -2.53235 3.75585 0.860922 6.02078 8.17115 -0.0 0.0 -0.0 12.2677 18.9285 -24.6213 9.43271 24.3446 -58.8676 2.51859 51.279 -1.20899 19.7324 -0.268193 2.49393 2.5054 20.592 -7.83403 0.0 0.0 0.0 37.0162 -8.84214 -13.2615 -11.8107 0.303329 1.78396 -23.127 0.464036 3.51455 7.51022 -0.0 -0.0 -0.0 0.0 -0.0 -1.72546 26.6742 2.45629 -35.3016 0.195226 -5.32944 36.467 -3.66776 4.54072 1.65701 -0.0 -0.0 0.0 0.0 0.0 
3106.46945778 652.12 -1666.94447384 -14.3132380687 55.0703082555 13.5799542615 1.43321 0.565507 1.91014 1.43513 0.442838 1.94224 1.45058 0.0752719 1.99064 1.44526 0.388651 1.9538 0.00751762 19.5072 -4.07931 1.41186 38.1497 -2.75835 -0.0 0.0 -0.0 -0.290344 13.8927 1.16431 -35.9353 -14.0848 67.8459 1.34797 -33.731 0.408675 -35.9623 -2.53235 3.75585 0.860922 6.02078 8.17115 -0.0 0.0 -0.0 12.2677 18.9285 -24.6213 9.43271 24.3446 -58.8676 2.51859 51.279 -1.20899 19.7324 -0.268193 2.49393 2.5054 20.592 -7.83403 0.0 0.0 0.0 37.0162 -8.84214 -13.2615 -11.8107 0.303329 1.78396 -23.127 0.464036 3.51455 7.51022 -0.0 -0.0 -0.0 0.0 -0.0 -1.72546 26.6742 2.45629 -35.3016 0.195226 -5.32944 36.467 -3.66776 4.54072 1.65701 -0.0 -0.0 0.0 0.0 0.0 
3087.95216721 664.584 -1670.12556042 -13.2449580719 54.6525207076 12.6090058947 1.41637 0.509277 1.98848 1.41849 0.381739 2.01684 1.43236 0.000713955 2.05263 1.42663 0.324813 2.02678 0.261298 19.4879 -4.15625 1.71518 38.128 -2.93773 -0.0 0.0 -0.0 -0.212532 13.9895 1.3028 -35.1094 -14.3541 67.7901 1.33973 -33.5691 0.404111 -36.4023 -2.57693 3.79048 0.91076 5.81121 8.41886 -0.0 0.0 -0.0 12.0812 19.2099 -24.1742 7.26461 23.7577 -59.9915 2.42328 50.1967 -1.13519 19.5356 -0.269785 2.46884 2.45083 19.6606 -7.91797 0.0 0.0 0.0 36.6602 -7.98196 -12.6001 -12.8462 0.31227 1.94258 -22.913 -0.287571 3.48893 7.54981 -0.0 -0.0 -0.0 0.0 -0.0 -2.82491 27.8826 3.03407 -35.512 0.206203 -5.35984 35.8306 -4.13853 4.47957 0.542118 -0.0 -0.0 0.0 0.0 0.0 
3021.96208864 673.471 -1669.31497881 -9.31265379552 55.4033906598 8.62127924875 1.26385 0.451385 2.1611 1.2664 0.312988 2.18543 1.27889 -0.104108 2.20526 1.27219 0.245393 2.19405 1.4395 20.2334 -2.76139 3.02685 38.0938 -1.74232 -0.0 0.0 -0.0 0.0176942 14.7307 1.76243 -33.2235 -14.7723 66.4469 1.19631 -30.6504 0.327849 -37.4753 -2.68675 3.8735 0.858834 5.09673 7.79401 -0.0 0.0 -0.0 11.8786 19.5235 -23.6888 3.02773 23.7429 -61.4889 2.06599 45.658 -0.869772 18.4063 -0.277252 2.32481 2.0267 13.3598 -7.97983 0.0 0.0 0.0 34.0153 -5.01581 -8.84828 -19.9596 0.296118 3.03318 -16.994 3.54582 2.56154 9.63881 -0.0 -0.0 -0.0 0.0 -0.0 -4.75976 29.4132 4.47908 -38.3983 0.368023 -5.77274 36.6101 -7.36244 4.5548 -3.03436 0.0 0.0 0.0 0.0 0.0 
